<mxfile host="app.diagrams.net" agent="Mozilla/5.0 (Windows NT 10.0; Win64; x64) AppleWebKit/537.36 (KHTML, like Gecko) Chrome/131.0.0.0 Safari/537.36 Edg/131.0.0.0" version="26.0.1">
  <diagram name="Page-1" id="BdCFKuBwzu480W7lIVb_">
    <mxGraphModel dx="1226" dy="721" grid="1" gridSize="10" guides="1" tooltips="1" connect="1" arrows="1" fold="1" page="1" pageScale="1" pageWidth="583" pageHeight="827" math="0" shadow="0">
      <root>
        <mxCell id="0" />
        <mxCell id="1" parent="0" />
        <mxCell id="rTksYJGZEVKo0ubcyPBa-5" value="" style="edgeStyle=orthogonalEdgeStyle;rounded=0;orthogonalLoop=1;jettySize=auto;html=1;" parent="1" source="rTksYJGZEVKo0ubcyPBa-1" target="rTksYJGZEVKo0ubcyPBa-4" edge="1">
          <mxGeometry relative="1" as="geometry" />
        </mxCell>
        <mxCell id="rTksYJGZEVKo0ubcyPBa-1" value="Start" style="rounded=1;whiteSpace=wrap;html=1;" parent="1" vertex="1">
          <mxGeometry x="263" y="134" width="46" height="30" as="geometry" />
        </mxCell>
        <mxCell id="rTksYJGZEVKo0ubcyPBa-7" value="" style="edgeStyle=orthogonalEdgeStyle;rounded=0;orthogonalLoop=1;jettySize=auto;html=1;" parent="1" source="rTksYJGZEVKo0ubcyPBa-4" target="rTksYJGZEVKo0ubcyPBa-6" edge="1">
          <mxGeometry relative="1" as="geometry" />
        </mxCell>
        <mxCell id="rTksYJGZEVKo0ubcyPBa-4" value="Read input_file" style="shape=parallelogram;perimeter=parallelogramPerimeter;whiteSpace=wrap;html=1;fixedSize=1;" parent="1" vertex="1">
          <mxGeometry x="226" y="194" width="120" height="30" as="geometry" />
        </mxCell>
        <mxCell id="rTksYJGZEVKo0ubcyPBa-9" value="yes" style="edgeStyle=orthogonalEdgeStyle;rounded=0;orthogonalLoop=1;jettySize=auto;html=1;" parent="1" source="rTksYJGZEVKo0ubcyPBa-6" target="rTksYJGZEVKo0ubcyPBa-8" edge="1">
          <mxGeometry relative="1" as="geometry" />
        </mxCell>
        <mxCell id="rTksYJGZEVKo0ubcyPBa-20" value="no" style="edgeStyle=orthogonalEdgeStyle;rounded=0;orthogonalLoop=1;jettySize=auto;html=1;" parent="1" source="rTksYJGZEVKo0ubcyPBa-6" target="rTksYJGZEVKo0ubcyPBa-19" edge="1">
          <mxGeometry relative="1" as="geometry" />
        </mxCell>
        <mxCell id="rTksYJGZEVKo0ubcyPBa-6" value="Found and Readable?" style="rhombus;whiteSpace=wrap;html=1;" parent="1" vertex="1">
          <mxGeometry x="241" y="254" width="90" height="90" as="geometry" />
        </mxCell>
        <mxCell id="rTksYJGZEVKo0ubcyPBa-11" value="" style="edgeStyle=orthogonalEdgeStyle;rounded=0;orthogonalLoop=1;jettySize=auto;html=1;" parent="1" source="rTksYJGZEVKo0ubcyPBa-8" target="rTksYJGZEVKo0ubcyPBa-10" edge="1">
          <mxGeometry relative="1" as="geometry" />
        </mxCell>
        <mxCell id="rTksYJGZEVKo0ubcyPBa-8" value="Validate directions_sequence" style="rounded=0;whiteSpace=wrap;html=1;" parent="1" vertex="1">
          <mxGeometry x="226" y="384" width="120" height="40" as="geometry" />
        </mxCell>
        <mxCell id="rTksYJGZEVKo0ubcyPBa-13" value="yes" style="edgeStyle=orthogonalEdgeStyle;rounded=0;orthogonalLoop=1;jettySize=auto;html=1;" parent="1" source="rTksYJGZEVKo0ubcyPBa-10" target="rTksYJGZEVKo0ubcyPBa-12" edge="1">
          <mxGeometry relative="1" as="geometry" />
        </mxCell>
        <mxCell id="rTksYJGZEVKo0ubcyPBa-21" value="no" style="edgeStyle=orthogonalEdgeStyle;rounded=0;orthogonalLoop=1;jettySize=auto;html=1;" parent="1" source="rTksYJGZEVKo0ubcyPBa-10" target="rTksYJGZEVKo0ubcyPBa-19" edge="1">
          <mxGeometry relative="1" as="geometry">
            <mxPoint x="356" y="479" as="targetPoint" />
          </mxGeometry>
        </mxCell>
        <mxCell id="rTksYJGZEVKo0ubcyPBa-10" value="Valid?" style="rhombus;whiteSpace=wrap;html=1;" parent="1" vertex="1">
          <mxGeometry x="261" y="454" width="50" height="50" as="geometry" />
        </mxCell>
        <mxCell id="RbZPECDtz7H00EQXEukf-2" value="" style="edgeStyle=orthogonalEdgeStyle;rounded=0;orthogonalLoop=1;jettySize=auto;html=1;" edge="1" parent="1" source="rTksYJGZEVKo0ubcyPBa-12" target="RbZPECDtz7H00EQXEukf-1">
          <mxGeometry relative="1" as="geometry" />
        </mxCell>
        <mxCell id="rTksYJGZEVKo0ubcyPBa-12" value="Compute final_floor" style="rounded=0;whiteSpace=wrap;html=1;" parent="1" vertex="1">
          <mxGeometry x="226" y="544" width="120" height="30" as="geometry" />
        </mxCell>
        <mxCell id="rTksYJGZEVKo0ubcyPBa-17" value="" style="edgeStyle=orthogonalEdgeStyle;rounded=0;orthogonalLoop=1;jettySize=auto;html=1;" parent="1" source="rTksYJGZEVKo0ubcyPBa-14" target="rTksYJGZEVKo0ubcyPBa-16" edge="1">
          <mxGeometry relative="1" as="geometry" />
        </mxCell>
        <mxCell id="rTksYJGZEVKo0ubcyPBa-14" value="Print result" style="shape=parallelogram;perimeter=parallelogramPerimeter;whiteSpace=wrap;html=1;fixedSize=1;" parent="1" vertex="1">
          <mxGeometry x="236" y="670" width="100" height="30" as="geometry" />
        </mxCell>
        <mxCell id="rTksYJGZEVKo0ubcyPBa-16" value="End" style="rounded=1;whiteSpace=wrap;html=1;" parent="1" vertex="1">
          <mxGeometry x="263" y="730" width="46" height="30" as="geometry" />
        </mxCell>
        <mxCell id="rTksYJGZEVKo0ubcyPBa-26" style="edgeStyle=orthogonalEdgeStyle;rounded=0;orthogonalLoop=1;jettySize=auto;html=1;" parent="1" source="rTksYJGZEVKo0ubcyPBa-19" target="rTksYJGZEVKo0ubcyPBa-16" edge="1">
          <mxGeometry relative="1" as="geometry">
            <Array as="points">
              <mxPoint x="410" y="745" />
            </Array>
          </mxGeometry>
        </mxCell>
        <mxCell id="rTksYJGZEVKo0ubcyPBa-19" value="Print error" style="shape=parallelogram;perimeter=parallelogramPerimeter;whiteSpace=wrap;html=1;fixedSize=1;" parent="1" vertex="1">
          <mxGeometry x="360" y="464" width="100" height="30" as="geometry" />
        </mxCell>
        <mxCell id="RbZPECDtz7H00EQXEukf-4" style="edgeStyle=orthogonalEdgeStyle;rounded=0;orthogonalLoop=1;jettySize=auto;html=1;" edge="1" parent="1" source="RbZPECDtz7H00EQXEukf-1" target="rTksYJGZEVKo0ubcyPBa-14">
          <mxGeometry relative="1" as="geometry" />
        </mxCell>
        <mxCell id="RbZPECDtz7H00EQXEukf-1" value="Compute first_basement_instruction" style="rounded=0;whiteSpace=wrap;html=1;" vertex="1" parent="1">
          <mxGeometry x="208" y="610" width="156" height="30" as="geometry" />
        </mxCell>
      </root>
    </mxGraphModel>
  </diagram>
</mxfile>
